<?xml version="1.0" encoding="UTF-8"?>
<svg id="Layer_1" data-name="Layer 1" xmlns="http://www.w3.org/2000/svg" viewBox="0 0 160 160">
  <defs>
    <style>
      .cls-1 {
        fill: #2e7d32;
      }
    </style>
  </defs>
  <path class="cls-1" d="m146.15,78.78c-3.98,2.15-7.63,4.57-11.97,6.3.15-2.51,2.47-3.37,2.76-5.34-.7-.82-1.64-.52-2.47-.52-8.12-.02-16.24.05-24.36-.04-1.84-.02-2.91.67-3.92,2.16-3.12,4.58-6.45,9.02-9.59,13.59-1.24,1.81-2.22,1.65-3.55.16-3.7-4.12-7.47-8.18-11.29-12.35-2.42,1.72-3.85,4.06-5.59,6.11-4.42,5.2-8.83,10.42-13.18,15.69-.95,1.15-1.75,1.3-3.08.64-17.5-8.64-35.19-16.9-52.92-25.04-.65-.3-1.37-.51-1.83-1.52,3.04-3.44,6.16-6.97,9.27-10.51,2.91-3.32,5.76-6.71,8.74-9.98,1.12-1.23,1.07-2.03-.09-3.2-5.38-5.42-10.68-10.92-16-16.41-.71-.73-1.63-1.33-1.91-2.37.19-.89.93-1.12,1.57-1.41,13.55-6.31,27.1-12.6,40.65-18.9,3.86-1.8,7.75-3.54,11.55-5.46,1.42-.72,2.31-.49,3.36.59,3.07,3.18,6.25,6.25,9.32,9.44,1.19,1.24,2.35,1.62,4.05,1.04,2.5-.85,5.11-1.39,7.67-2.09,2.86-.78,3.11-.63,3.55,2.25.06.41.16.78.87,1.13,2.31-2.49,4.71-5.04,7.07-7.63,1.24-1.37,2.52-2.73,3.59-4.23,1.3-1.83,2.64-2.06,4.72-1.17,15.95,6.83,31.95,13.55,47.94,20.3,3.78,1.59,3.75,1.63,1.04,4.83-4.86,5.77-9.62,11.64-14.53,17.38-1.33,1.55-1.26,2.61.09,4.08,4.74,5.15,9.36,10.4,14.03,15.6q2.26,2.52-.76,4.25c-1.54.87-3.1,1.71-4.8,2.64m-74.46-5.93c2.66-.26,5.29-.33,7.66,1.27.35.24.95.31,1.38.21,1.64-.39,4.43-4.27,4.52-6.22-2.36.48-3.9,2.63-6.18,3.28-.52-1.12.13-1.63.61-2.11,1.55-1.55,3.41-2.8,5.49-3.32,1.3-.32,1.72-1,2.02-2,.57-1.89.24-3.6-1.24-5-6.57,5.49-13.43,5.46-20.49,1.31-1.57,3.06-1.21,4.32,1.38,5.85,1.96,1.15,4.11,1.78,6.21,2.59.68.26,1.65.19,1.82,1.42-1.49.52-3.32.7-3.97,2.78-.68-.21-1.36-.47-2.05-.61-1.3-.26-1.9.68-2.33,1.62-.49,1.09.43,1.55,1.19,1.61,3.34.27,6.7.41,10.53.63-1.93-1.89-3.76-1.93-5.59-1.61-1.62.29-1.89-.31-.96-1.69m41.6-18.64c-.48.03-1.14.04-.91.73.5,1.47.02,2.66-.9,3.69q1.67,2.97-1.71,5.28c.09.7.44,1.29,1.08,1.76,1.35-.22,2.33-.86,2.84-2.23,3-8.06,6.01-16.11,9.07-24.15.48-1.26.19-1.95-1.05-2.41-6.02-2.25-12.04-4.51-18.04-6.81-1.36-.52-1.98-.21-2.47,1.21-1.91,5.46-3.72,10.98-6.01,16.28-1.4,3.24-.87,6.4-1.13,9.85,1.45-.36,2.43-.48,1.78-2.23-.58-1.55.8-3.44,2.28-3.06,2.28.58,2.31-.84,2.72-2.11-.96-1.2-2.96-.94-3.26-2.75.96-.78,1.78-.24,2.57.03,1.29.45,2.55.98,3.83,1.46,3.17,1.17,6.34,2.32,9.51,3.48.61.22,1.33.44,1.37,1.19.04.78-.67.75-1.56.79m-21.17-3.96c-.03-4.66-.05-9.32-.1-13.99-.03-2.42-.4-2.66-2.74-1.93-3.3,1.03-6.57,2.14-9.89,3.09-1.43.41-1.93,1.17-1.88,2.59.08,2.49.1,4.98.04,7.48-.04,1.7.38,2.6,2.36,2.77,2.05.18,4.58.66,5.4,2.67,1.6,3.91,4.95,7.28,3.97,12.05,2.18.4,3.13-.28,3.05-2.48-.14-3.93-.13-7.87-.22-12.26m-44.66,3.9c2.84-1.41,5.5-3.08,7.96-5.48-1.92-1.13-2.47-2.46-2.28-4.37.15-1.45-.68-2.74-2.03-3.59-2.15-1.36-4.65-1.9-7.01-2.25-1.84-.27-4.02.96-4.91,2.8-.89,1.83-1.18,3.97-1.57,6.01-.35,1.83.03,3.61,1.6,4.76,1.39,1.03,2.47,2.16,2.55,4.05,2.06-.15,3.68-1.05,5.69-1.92m20.49-2.31c1.71-.96,3.55-1.57,5.49-1.69,1.59-.1,2.07-.86,2.05-2.31-.04-2.73-.01-5.47-.02-8.2,0-.65.02-1.43-.63-1.73-3.23-1.49-6.45-3.01-10.19-4.01v20.6c1.05-1.13,1.93-1.94,3.3-2.67m-36.47,7.43c3.85,1.7,7.7,3.39,11.54,5.09.35-.7.11-1.15-.09-1.56-1.21-2.57-2.85-4.88-3.65-7.74-.39-1.41-2.02-3.72-4.23-2.98-3.06,1.03-5.97,2.55-8.9,4.39,1.58,1.4,3.4,1.81,5.33,2.8m21.37,7.02c-.65.4-1.58.41-1.91,1.28.19.76.86.95,1.42,1.21,3.21,1.46,6.43,2.91,9.66,4.31.76.33,1.65,1.01,2.41.08.67-.82,1.1-1.78.63-2.9-1.22-2.91-2.45-5.82-3.73-8.88-2.79,1.63-5.48,3.2-8.48,4.91m9.61-18.75v-8.04c-.69.06-.87.03-1,.09-1.52.73-3.03,1.46-4.54,2.21-2.09,1.03-2.6,2.87-1.01,4.57,1.24,1.33,1.94,2.92,2.79,4.45,1.1,2,1.72,4.28,3.77,6.57,0-3.53,0-6.45,0-9.85m15.96-16.01c-.81-1.55.05-3.1.13-4.83-2.25.06-4.21.44-6.18,1.77.9,1.46,1.73,2.81,2.56,4.16,2.22,3.58,3.2,3.78,6.99,1.43-1.34-.42-2.58-.95-3.51-2.53m3.58,44.62c-.19.95,1.47.82,1.02,2.05-3.25.79-6.58-.79-10.47-.21,1.41.57,2.38.79,3.15,1.31,3.09,2.09,5.91,2.04,9-.24,2.73-2.02,3-2.94.4-5.87-.98.91-1.96,1.83-3.1,2.97m45.55-18.67c2.13-1.05,4.26-2.1,6.64-3.27-1.82-1.4-3.63-2.01-5.42-2.65-.61-.22-1.14-.08-1.48.46-1.5,2.3-2.93,4.64-4.23,7.66,1.74-.84,2.96-1.44,4.49-2.2m-39.18,16.96c-.02.89,0,1.76.87,2.53,1.47-.62,3.02-1.18,4.44-2.73-2.11-1.71-5.03-3.09-3.19-6.52-1.4-.24-1.97.28-2.63.97-1.99,2.08-.11,3.67.52,5.76m35.75-27.55c.35-.72.68-1.46,1.05-2.17.74-1.45.13-2.03-1.45-2.23-2.33,6.17-4.63,12.27-6.93,18.36.12.05.23.1.35.15,2.27-4.6,4.54-9.19,6.98-14.11m-37.6-21.41c-1.26-1.38-2.37-.28-4.11.03,2.05.85,3.58,1.37,3.99,3.26.4,1.83-.86,3.11-1.66,5.05,2.17-1.18,4.37-1.1,6.13-2.62-1.43-1.89-2.78-3.67-4.35-5.72m-8.31-2.78c-2.11.79-4.6.73-6.67,2.61,3.31.71,12.57-2.15,13.41-4.21-2.26.53-4.31,1.01-6.75,1.61m23.92,38.37c1.59.72,3,.6,3.9-1.05.68-1.25.2-2.31-.88-3.13-1.21-.92-2.44-.78-3.45.24-1.22,1.23-1.16,2.54.44,3.93m-66.14-24.89c.27.49.51,1.03,1.09,1.23.92.31,5.12-1.86,5.29-2.84.2-1.17-.35-2.35-1.61-2.02-1.94.51-4,1.14-4.77,3.63m35.39-1.98c.69.24,1.39.47,2.3.78-2.77-5.98-4.48-6.61-7.8-2.88,1.77.68,3.47,1.34,5.51,2.1m30.2,36.56c1.62-1.19,3.88-1.39,5.17-3.2-.8-1-1.42-.82-2.11-.14-1.38,1.35-2.58.8-3.69-.41-.4-.43-.53-1.21-1.44-1.08.48,1.72.04,3.72,2.07,4.83m-25.58-10.87c1.96-.1,3.77-.68,5.49-1.59.85-.45,1.88-.93,1.92-1.97.03-1.09-1.05-1.45-2.15-2.03.9,2.25-.43,3.08-2,3.66-2.1.78-4.22,1.53-7.14,1.63,1.61.68,2.55.5,3.88.3m-4.91-3.85c1.09-.93,2.42-1.45,3.66-2.18-1.68.22-3.39.11-4.89.93-1.02.56-2.47,1.1-2.16,2.52.3,1.39,1.71,1.61,3.05,1.82.05-1.08-.87-2.02.34-3.09m23.07-12.17c1.31-1.66,1.62-3.74,2.26-5.66.48-1.43-.74-1.41-1.76-1.47-.91,2.31-.38,4.65-.5,7.13m30.86,5.9c-1.47,2.91-2.94,5.83-4.41,8.74,1.45-1.5,2.51-3.19,3.38-4.97.84-1.7,2.36-3.13,2.44-5.29-.88.14-.94.8-1.41,1.52m-41.63-21.78c-.38-.11-.75-.27-1.13-.31-.86-.1-1.63.14-1.92,1.03-.26.78.39,1.16.95,1.43.87.42,1.8.78,2.66-.03.78-.74.55-1.39-.55-2.11m10.82,34.98c.08.85.46,1.41,1.37,1,.75-.34.78-1.15.75-1.84-.03-.69-.68-.83-1.22-.89-1.15-.12-.96.74-.91,1.73m-25.02,7.74c.4-.18.95-.05,1.34-.78-1.28-.34-2.18-1.46-3.78-1.33.32,1.23.73,2.18,2.44,2.11m26.92-1.62c-.55-.79-1.17-.82-1.73-.05-.42.58-.13,1.14.44,1.39,1,.44,1.27-.23,1.29-1.34Z"/>
  <path class="cls-1" d="m124.82,82.06c2.2.15,4.23-.46,6.11.39.45,1.24-.41,1.93-.94,2.65-7.02,9.61-14.03,19.22-21.14,28.76-1.27,1.7-1.31,2.9,0,4.63,7.95,10.43,15.78,20.94,23.64,31.43.47.63.9,1.3,1.34,1.93-.75,1.17-1.81.76-2.7.77-6.27.04-12.55-.04-18.82.08-1.99.04-3.28-.64-4.42-2.24-5.45-7.67-11-15.27-16.51-22.89-.37-.51-.79-.97-1.21-1.48-.9.7-.54,1.56-.54,2.3,0,5.39,0,10.78.08,16.17.03,1.63-.54,2.73-1.87,3.62-8.07,5.41-4.78,5.49-13.33.25-9.94-6.09-19.77-12.36-29.7-18.44-1.91-1.17-3.04-2.52-3.54-4.77-1.96-8.94-4.12-17.84-6.2-26.76-.14-.62-.4-1.24.1-1.83.9-.41,1.52.26,2.21.6,7.62,3.63,15.26,7.22,22.83,10.95,1.73.86,2.72.52,3.87-.9,5.06-6.25,10.2-12.43,15.31-18.64,2-2.43,2.17-2.44,4.43-.16q5.91,5.99,5.87,14.45c0,1.81,0,3.62.55,5.58,3.46-4.8,6.93-9.59,10.37-14.4,2.29-3.2,4.61-6.39,6.78-9.68,1.15-1.74,2.61-2.43,4.64-2.4,4.18.07,8.36.03,12.79.03Z"/>
  <path class="cls-1" d="m127.63,123.58c-1.44,2.4-3.77,3.46-5.75,4.93-.82.6-1.53.07-2.05-.62-2.7-3.5-5.37-7.01-8.08-10.5-.59-.76-.53-1.44,0-2.18,4.97-6.81,9.92-13.63,14.9-20.43.12-.16.4-.2,1.11-.54.11,9.9.24,19.53-.14,29.35Z"/>
  <path class="cls-1" d="m117.12,44.74c-5.48-2.13-11.1-3.5-16.2-6.48.94-1.15,1.66-.82,2.31-.59,4.6,1.64,9.18,3.31,13.77,4.98.6.22,1.3.41,1.39,1.16.09.73-.48.92-1.26.94Z"/>
  <path class="cls-1" d="m118.22,39.73c.76.37,1.74.41,1.29,1.47-.26.61-.93.66-1.47.45-4.99-1.94-9.97-3.9-14.95-5.88-.38-.15-.63-.49-.54-1.04.65-1,1.51-.43,2.28-.14,4.41,1.66,8.81,3.37,13.37,5.13Z"/>
  <path class="cls-1" d="m104.12,41.38c3.86,1.46,7.54,2.85,11.21,4.27.82.32,2.26.37,1.77,1.72-.44,1.19-1.52.41-2.29.12-4.21-1.59-8.41-3.2-12.59-4.83-.77-.3-1.78-.38-1.98-1.63,1.32-1.16,2.49.05,3.88.35Z"/>
  <path class="cls-1" d="m115.49,51.1c-5.27-1.83-10.37-3.72-15.46-5.62-.61-.23-1.3-.53-.92-1.37.31-.66.95-.47,1.48-.27,4.79,1.82,9.58,3.65,14.35,5.51.69.27,1.71.6.55,1.74Z"/>
</svg>