<?xml version="1.0" encoding="UTF-8"?>
<svg id="Layer_1" data-name="Layer 1" xmlns="http://www.w3.org/2000/svg" viewBox="0 0 250 150">
  <defs>
    <style>
      .cls-1 {
        fill: #276628;
      }

      .cls-2 {
        fill: #2e7d32;
      }
    </style>
  </defs>
  <path class="cls-2" d="m76.39,67.36c-1.97,1.06-3.77,2.26-5.92,3.11.07-1.24,1.22-1.67,1.37-2.64-.34-.41-.81-.26-1.22-.26-4.02-.01-8.03.02-12.05-.02-.91,0-1.44.33-1.94,1.07-1.54,2.26-3.19,4.46-4.74,6.72-.61.89-1.1.81-1.76.08-1.83-2.04-3.69-4.04-5.58-6.11-1.2.85-1.91,2.01-2.77,3.02-2.19,2.57-4.37,5.15-6.52,7.76-.47.57-.87.64-1.52.32-8.65-4.27-17.4-8.36-26.17-12.38-.32-.15-.68-.25-.9-.75,1.5-1.7,3.05-3.44,4.58-5.2,1.44-1.64,2.85-3.32,4.32-4.93.55-.61.53-1-.04-1.58-2.66-2.68-5.28-5.4-7.91-8.11-.35-.36-.8-.66-.95-1.17.09-.44.46-.55.77-.7,6.7-3.12,13.4-6.23,20.1-9.35,1.91-.89,3.83-1.75,5.71-2.7.7-.35,1.14-.24,1.66.29,1.52,1.57,3.09,3.09,4.61,4.67.59.61,1.16.8,2,.52,1.24-.42,2.53-.69,3.79-1.03,1.41-.39,1.54-.31,1.75,1.11.03.2.08.39.43.56,1.14-1.23,2.33-2.49,3.5-3.77.62-.68,1.25-1.35,1.77-2.09.64-.91,1.3-1.02,2.33-.58,7.89,3.38,15.8,6.7,23.7,10.04,1.87.79,1.85.8.52,2.39-2.41,2.86-4.76,5.76-7.18,8.59-.66.77-.62,1.29.05,2.02,2.34,2.54,4.63,5.14,6.94,7.71q1.12,1.25-.37,2.1c-.76.43-1.53.84-2.38,1.31m-36.82-2.93c1.32-.13,2.61-.16,3.79.63.17.12.47.15.68.1.81-.19,2.19-2.11,2.23-3.07-1.17.24-1.93,1.3-3.05,1.62-.26-.56.06-.81.3-1.04.77-.77,1.68-1.38,2.71-1.64.64-.16.85-.5,1-.99.28-.94.12-1.78-.61-2.47-3.25,2.71-6.64,2.7-10.13.65-.78,1.52-.6,2.14.68,2.89.97.57,2.03.88,3.07,1.28.34.13.81.09.9.7-.74.26-1.64.35-1.96,1.38-.34-.1-.67-.23-1.02-.3-.64-.13-.94.33-1.15.8-.24.54.21.76.59.79,1.65.13,3.31.2,5.21.31-.95-.93-1.86-.96-2.76-.8-.8.14-.94-.15-.47-.84m20.57-9.22c-.24.02-.56.02-.45.36.25.73.01,1.32-.44,1.82q.82,1.47-.85,2.61c.05.35.22.64.53.87.67-.11,1.15-.43,1.4-1.1,1.48-3.98,2.97-7.97,4.48-11.94.24-.62.09-.96-.52-1.19-2.98-1.11-5.95-2.23-8.92-3.37-.67-.26-.98-.1-1.22.6-.94,2.7-1.84,5.43-2.97,8.05-.69,1.6-.43,3.16-.56,4.87.72-.18,1.2-.24.88-1.1-.28-.77.39-1.7,1.13-1.51,1.13.29,1.14-.41,1.35-1.04-.47-.59-1.46-.46-1.61-1.36.48-.39.88-.12,1.27.02.64.22,1.26.49,1.89.72,1.57.58,3.13,1.15,4.7,1.72.3.11.66.22.68.59.02.39-.33.37-.77.39m-10.47-1.96c-.02-2.31-.03-4.61-.05-6.92-.01-1.19-.2-1.32-1.35-.95-1.63.51-3.25,1.06-4.89,1.53-.71.2-.95.58-.93,1.28.04,1.23.05,2.46.02,3.7-.02.84.19,1.29,1.17,1.37,1.02.09,2.26.33,2.67,1.32.79,1.93,2.45,3.6,1.96,5.96,1.08.2,1.55-.14,1.51-1.23-.07-1.95-.06-3.89-.11-6.06m-22.08,1.93c1.41-.7,2.72-1.52,3.93-2.71-.95-.56-1.22-1.22-1.13-2.16.07-.72-.34-1.36-1-1.78-1.06-.67-2.3-.94-3.46-1.11-.91-.13-1.99.48-2.43,1.39-.44.9-.58,1.96-.78,2.97-.18.91.02,1.78.79,2.35.69.51,1.22,1.07,1.26,2,1.02-.07,1.82-.52,2.81-.95m10.13-1.14c.84-.48,1.76-.77,2.71-.83.79-.05,1.02-.42,1.01-1.14-.02-1.35,0-2.7,0-4.06,0-.32.01-.7-.31-.85-1.59-.74-3.19-1.49-5.04-1.98v10.19c.52-.56.95-.96,1.63-1.32m-18.03,3.68c1.9.84,3.81,1.68,5.71,2.52.17-.35.05-.57-.04-.77-.6-1.27-1.41-2.42-1.8-3.83-.19-.7-1-1.84-2.09-1.47-1.51.51-2.95,1.26-4.4,2.17.78.69,1.68.89,2.63,1.39m10.57,3.47c-.32.2-.78.2-.94.63.1.38.42.47.7.6,1.59.72,3.18,1.44,4.78,2.13.38.16.81.5,1.19.04.33-.4.54-.88.31-1.43-.6-1.44-1.21-2.88-1.85-4.39-1.38.81-2.71,1.58-4.19,2.43m4.75-9.27v-3.97c-.34.03-.43.01-.5.04-.75.36-1.5.72-2.24,1.09-1.03.51-1.29,1.42-.5,2.26.61.66.96,1.44,1.38,2.2.55.99.85,2.12,1.86,3.25,0-1.74,0-3.19,0-4.87m7.89-7.92c-.4-.76.03-1.53.07-2.39-1.11.03-2.08.22-3.05.87.44.72.85,1.39,1.27,2.06,1.1,1.77,1.58,1.87,3.46.71-.66-.21-1.28-.47-1.74-1.25m1.77,22.06c-.1.47.73.4.51,1.01-1.61.39-3.25-.39-5.18-.11.7.28,1.18.39,1.56.65,1.53,1.03,2.92,1.01,4.45-.12,1.35-1,1.48-1.45.2-2.9-.49.45-.97.9-1.53,1.47m22.52-9.23c1.05-.52,2.1-1.04,3.28-1.62-.9-.69-1.79-.99-2.68-1.31-.3-.11-.56-.04-.73.23-.74,1.14-1.45,2.3-2.09,3.79.86-.42,1.46-.71,2.22-1.09m-19.37,8.38c0,.44,0,.87.43,1.25.73-.31,1.5-.58,2.19-1.35-1.05-.85-2.49-1.53-1.58-3.23-.69-.12-.97.14-1.3.48-.98,1.03-.05,1.81.26,2.85m17.68-13.62c.17-.36.34-.72.52-1.07.37-.72.06-1.01-.72-1.1-1.15,3.05-2.29,6.06-3.42,9.08.06.02.12.05.17.07,1.12-2.27,2.25-4.54,3.45-6.97m-18.59-10.58c-.62-.68-1.17-.14-2.03.01,1.01.42,1.77.68,1.97,1.61.2.91-.43,1.54-.82,2.5,1.07-.58,2.16-.55,3.03-1.29-.71-.93-1.38-1.82-2.15-2.83m-4.11-1.37c-1.05.39-2.28.36-3.3,1.29,1.64.35,6.22-1.06,6.63-2.08-1.12.26-2.13.5-3.34.79m11.83,18.97c.78.36,1.48.3,1.93-.52.34-.62.1-1.14-.43-1.55-.6-.46-1.2-.38-1.71.12-.61.61-.57,1.26.22,1.94m-32.7-12.31c.13.24.25.51.54.61.46.16,2.53-.92,2.62-1.4.1-.58-.17-1.16-.8-1-.96.25-1.98.56-2.36,1.79m17.5-.98c.34.12.69.23,1.13.39-1.37-2.96-2.22-3.27-3.86-1.43.87.34,1.72.66,2.72,1.04m14.93,18.08c.8-.59,1.92-.69,2.56-1.58-.4-.5-.7-.4-1.04-.07-.68.67-1.28.39-1.83-.2-.2-.21-.26-.6-.71-.53.24.85.02,1.84,1.02,2.39m-12.65-5.37c.97-.05,1.87-.34,2.71-.79.42-.22.93-.46.95-.98.02-.54-.52-.72-1.06-1,.45,1.11-.21,1.52-.99,1.81-1.04.39-2.09.76-3.53.81.79.33,1.26.25,1.92.15m-2.43-1.91c.54-.46,1.2-.72,1.81-1.08-.83.11-1.68.05-2.42.46-.5.28-1.22.54-1.07,1.25.15.69.85.79,1.51.9.03-.53-.43-1,.17-1.53m11.41-6.02c.65-.82.8-1.85,1.12-2.8.24-.71-.36-.7-.87-.73-.45,1.14-.19,2.3-.25,3.52m15.26,2.92c-.73,1.44-1.45,2.88-2.18,4.32.71-.74,1.24-1.58,1.67-2.46.41-.84,1.17-1.55,1.21-2.61-.44.07-.47.39-.7.75m-20.58-10.77c-.19-.05-.37-.13-.56-.15-.43-.05-.81.07-.95.51-.13.39.19.57.47.71.43.21.89.39,1.31-.02.38-.37.27-.69-.27-1.04m5.35,17.3c.04.42.23.7.68.5.37-.17.39-.57.37-.91-.01-.34-.34-.41-.6-.44-.57-.06-.47.36-.45.85m-12.37,3.83c.2-.09.47-.02.66-.38-.63-.17-1.08-.72-1.87-.66.16.61.36,1.08,1.21,1.04m13.31-.8c-.27-.39-.58-.41-.85-.02-.21.29-.07.56.22.69.49.22.63-.12.64-.66Z"/>
  <path class="cls-2" d="m65.84,68.98c1.09.07,2.09-.23,3.02.19.22.62-.2.95-.47,1.31-3.47,4.75-6.94,9.5-10.45,14.22-.63.84-.65,1.43,0,2.29,3.93,5.15,7.8,10.35,11.69,15.54.23.31.45.64.66.95-.37.58-.9.38-1.33.38-3.1.02-6.2-.02-9.31.04-.98.02-1.62-.32-2.18-1.11-2.7-3.79-5.44-7.55-8.16-11.32-.18-.25-.39-.48-.6-.73-.45.35-.27.77-.27,1.14,0,2.66,0,5.33.04,7.99.01.8-.27,1.35-.92,1.79-3.99,2.67-2.36,2.71-6.59.12-4.91-3.01-9.77-6.11-14.69-9.12-.95-.58-1.51-1.24-1.75-2.36-.97-4.42-2.04-8.82-3.07-13.23-.07-.31-.2-.61.05-.9.44-.2.75.13,1.09.29,3.77,1.8,7.55,3.57,11.29,5.42.86.42,1.34.26,1.91-.44,2.5-3.09,5.04-6.14,7.57-9.21.99-1.2,1.07-1.21,2.19-.08q2.92,2.96,2.9,7.14c0,.89,0,1.79.27,2.76,1.71-2.37,3.43-4.74,5.13-7.12,1.13-1.58,2.28-3.16,3.35-4.78.57-.86,1.29-1.2,2.29-1.19,2.07.03,4.14.01,6.32.01Z"/>
  <path class="cls-2" d="m218.1,66.34c3.09,0,2.86-.32,2.88,2.76.01,2.47,0,4.93,0,7.4,0,.47,0,.94,0,1.66,1.12-.8,1.95-1.58,2.98-2.07,5.5-2.62,12.14-.61,15.19,4.98,3.38,6.19,3.16,12.49-.78,18.39-3.12,4.67-10.05,6.2-14.79,3.55-.87-.48-1.52-1.24-2.41-1.85-.08.22-.17.35-.17.49.03,2.42-.06,2.21-2.5,2.21-2.27,0-4.53-.03-6.8,0-.91.01-1.27-.3-1.26-1.25.02-11.61.02-23.23,0-34.84,0-1.09.4-1.49,1.48-1.46,2.03.05,4.06.01,6.2.01m4.69,27.92c2.74,1.94,6.1.96,7.33-2.15.58-1.47.39-2.97.07-4.45-.44-1.99-1.93-3.36-3.83-3.59-2.1-.25-3.86.71-4.83,2.55-.97,1.85-.96,5.89,1.25,7.63Z"/>
  <path class="cls-2" d="m166.08,103.87c-.91,0-1.71-.05-2.5,0-1.04.07-1.37-.36-1.37-1.39.04-5.29,0-10.58,0-15.87,0-6.28,0-12.57-.03-18.85,0-1.09.41-1.49,1.48-1.47,2.58.04,5.17,0,7.75.02,1.37,0,1.5.26,1.49,1.64-.05,4.57-.03,9.15-.04,13.72,0,1.15,0,2.29,0,3.59.68-.24.94-.74,1.24-1.16,1.81-2.56,3.62-5.13,5.39-7.73.42-.62.88-.96,1.65-.95,3.26.02,6.52,0,9.78,0,.39,0,.81-.02,1.12.35-.04.58-.47.98-.8,1.4-2.98,3.83-5.95,7.66-8.97,11.45-.65.82-.58,1.36.06,2.15,3.15,3.84,6.25,7.73,9.36,11.61.29.37.56.75.82,1.1-.31.54-.75.39-1.12.39-3.34.01-6.68-.02-10.02.02-.87.01-1.38-.32-1.84-1.02-1.88-2.9-3.82-5.77-5.74-8.64-.21-.32-.36-.71-.89-.94,0,2.44-.11,4.81.03,7.17.2,3.44.28,3.43-3.16,3.43-1.19,0-2.39,0-3.7,0Z"/>
  <path class="cls-2" d="m98.75,103.87c-2.58,0-5.04,0-7.51-.01-1.41,0-1.52-.13-1.42-1.49.04-.48.04-.95-.1-1.38-.28-.12-.4.06-.53.19-5.19,5.12-13.25,3.42-17.03-1.78-1.8-2.49-2.63-5.3-2.8-8.35-.24-4.25.5-8.24,3.16-11.69,3.53-4.57,10.66-5.72,15.34-2.47.57.4,1.07.9,1.65,1.38.29-.61.16-1.17.17-1.7,0-.81.38-1.14,1.17-1.14,2.78,0,5.57,0,8.35-.03.84,0,1.1.39,1.1,1.17-.02,8.75-.03,17.49-.01,26.24,0,1.09-.66,1.1-1.54,1.08m-9.28-12.15c.31-1.18.28-2.38.07-3.55-.43-2.48-2.3-4.08-4.68-4.1-2.39-.03-4.02,1.34-4.58,3.85-.25,1.1-.27,2.19-.06,3.31.41,2.14,1.99,3.77,3.91,3.94,2.63.24,4.46-.89,5.33-3.44Z"/>
  <path class="cls-2" d="m128.22,82.11c1.8-3.16,3.96-5.77,7.35-7.18,5.11-2.12,12.06-.13,14.49,5.39.05.1.12.2.33.52.26-.68.48-1.21.66-1.75.22-.67.66-.86,1.29-.62,2.64,1,5.28,2.01,7.92,3.01.78.3.82.87.56,1.56-3.06,8.03-6.12,16.05-9.15,24.08-.39,1.02-.94,1.2-1.92.8-2.32-.94-4.66-1.85-7.02-2.67-1.17-.41-1.41-.99-.85-2.04.18-.34.29-.73.46-1.19-.62-.07-1.02.24-1.44.38-6.92,2.26-13.1-2.84-14.36-8.59-.89-4.08-.04-7.88,1.69-11.68m17.41,10.73c.94-1.63,1.5-3.35,1.04-5.24-.47-1.95-1.86-3.02-3.73-3.44-1.75-.4-3.19.28-4.33,1.63-2.39,2.83-2.78,7.92,1.63,9.2,2.01.58,3.72.01,5.38-2.14Z"/>
  <path class="cls-2" d="m116.01,97.86c0,1.63-.03,3.14.02,4.65.03.95-.32,1.38-1.31,1.37-2.7-.04-5.41-.04-8.11-.01-.93.01-1.25-.35-1.24-1.27.03-3.54.02-7.08,0-10.62-.03-4.89-.09-9.78-.1-14.67,0-1.9.04-1.9,1.91-1.9,2.47,0,4.93.02,7.4-.03,1.04-.02,1.45.42,1.42,1.41-.02.78,0,1.56.13,2.41,1.47-1.42,3.01-2.63,4.88-3.37.93-.37,1.88-.63,2.88-.68.73-.03,1.13.29,1.13,1.04.02,2.98.03,5.96.06,8.95,0,.71-.34,1.01-1.02,1.01-1.19,0-2.39-.02-3.58.04-2.94.14-4.48,1.8-4.48,4.75,0,2.27,0,4.53.02,6.92Z"/>
  <path class="cls-2" d="m194.75,86.63c.04-3.37.11-6.63.11-9.88,0-.98.36-1.35,1.32-1.34,2.66.03,5.32.03,7.98,0,1-.01,1.3.43,1.3,1.37,0,8.54,0,17.08.05,25.62,0,1.16-.44,1.52-1.55,1.49-2.54-.06-5.08-.05-7.63,0-1.05.02-1.47-.29-1.47-1.42,0-5.24-.07-10.48-.11-15.83Z"/>
  <path class="cls-2" d="m67.23,89.51c-.71,1.18-1.86,1.71-2.84,2.44-.4.3-.75.03-1.02-.31-1.33-1.73-2.66-3.47-3.99-5.19-.29-.38-.26-.71,0-1.08,2.46-3.37,4.91-6.74,7.37-10.1.06-.08.2-.1.55-.27.06,4.9.12,9.66-.07,14.51Z"/>
  <path class="cls-2" d="m62.04,50.53c-2.71-1.05-5.49-1.73-8.01-3.2.46-.57.82-.41,1.14-.29,2.27.81,4.54,1.64,6.81,2.46.3.11.64.2.69.57.04.36-.24.45-.63.46Z"/>
  <path class="cls-2" d="m62.58,48.05c.37.18.86.2.64.73-.13.3-.46.33-.72.22-2.47-.96-4.93-1.93-7.39-2.91-.19-.08-.31-.24-.27-.51.32-.49.75-.21,1.13-.07,2.18.82,4.36,1.66,6.61,2.54Z"/>
  <path class="cls-2" d="m55.61,48.87c1.91.72,3.73,1.41,5.54,2.11.41.16,1.12.19.87.85-.22.59-.75.2-1.13.06-2.08-.78-4.16-1.58-6.23-2.39-.38-.15-.88-.19-.98-.81.65-.58,1.23.02,1.92.17Z"/>
  <path class="cls-2" d="m61.23,53.68c-2.6-.91-5.13-1.84-7.64-2.78-.3-.11-.64-.26-.45-.68.15-.33.47-.23.73-.13,2.37.9,4.74,1.8,7.09,2.73.34.13.84.3.27.86Z"/>
  <g>
    <path class="cls-2" d="m198.9,69.05c.07.93.13,1.71.41,2.42.27.69.4,1,.36.07-.04-.86-.1-1.68.04-2.63.05-.02.1-.05.15-.08,5.85-3.42,7.49-8.87.44-15.54-2.65,4.72-8.56,8.99-1.97,15.3.24.23.42.39.58.47h0Zm.31-2.02c-1.18-3.96,1.31-7.88,1.27-11.26,1.31,5.09,0,6.57-1.27,11.26h0Z"/>
    <path class="cls-1" d="m199.21,67.03c-1.18-3.96,1.31-7.88,1.27-11.26,1.31,5.09,0,6.57-1.27,11.26h0Z"/>
  </g>
</svg>