<?xml version="1.0" encoding="UTF-8"?>
<svg id="Layer_1" data-name="Layer 1" xmlns="http://www.w3.org/2000/svg" viewBox="0 0 160 160">
  <defs>
    <style>
      .cls-1 {
        fill: #276628;
      }

      .cls-2 {
        fill: #2e7d32;
      }
    </style>
  </defs>
  <path class="cls-2" d="m48.22,68.34c-1.31.71-2.51,1.5-3.94,2.07.05-.83.81-1.11.91-1.76-.23-.27-.54-.17-.82-.17-2.68,0-5.35.01-8.03-.01-.61,0-.96.22-1.29.71-1.03,1.51-2.13,2.97-3.16,4.48-.41.6-.73.54-1.17.05-1.22-1.36-2.46-2.69-3.72-4.07-.8.57-1.27,1.34-1.84,2.01-1.46,1.71-2.91,3.43-4.34,5.17-.31.38-.58.43-1.01.21-5.76-2.85-11.59-5.57-17.43-8.25-.21-.1-.45-.17-.6-.5,1-1.13,2.03-2.3,3.05-3.46.96-1.09,1.9-2.21,2.88-3.29.37-.4.35-.67-.03-1.05-1.77-1.79-3.52-3.6-5.27-5.4-.23-.24-.54-.44-.63-.78.06-.29.31-.37.52-.47,4.46-2.08,8.93-4.15,13.39-6.23,1.27-.59,2.55-1.17,3.8-1.8.47-.24.76-.16,1.11.19,1.01,1.05,2.06,2.06,3.07,3.11.39.41.77.53,1.34.34.83-.28,1.68-.46,2.53-.69.94-.26,1.02-.21,1.17.74.02.13.05.26.29.37.76-.82,1.55-1.66,2.33-2.51.41-.45.83-.9,1.18-1.39.43-.6.87-.68,1.56-.38,5.25,2.25,10.52,4.46,15.79,6.69,1.24.53,1.23.54.34,1.59-1.6,1.9-3.17,3.84-4.79,5.72-.44.51-.41.86.03,1.34,1.56,1.69,3.08,3.42,4.62,5.14q.75.83-.25,1.4c-.51.29-1.02.56-1.58.87m-24.53-1.95c.88-.08,1.74-.11,2.52.42.12.08.31.1.45.07.54-.13,1.46-1.41,1.49-2.05-.78.16-1.28.87-2.03,1.08-.17-.37.04-.54.2-.69.51-.51,1.12-.92,1.81-1.09.43-.11.57-.33.67-.66.19-.62.08-1.18-.41-1.65-2.16,1.81-4.42,1.8-6.75.43-.52,1.01-.4,1.42.46,1.93.64.38,1.35.59,2.04.85.22.09.54.06.6.47-.49.17-1.1.23-1.31.92-.23-.07-.45-.16-.68-.2-.43-.08-.63.22-.77.53-.16.36.14.51.39.53,1.1.09,2.21.14,3.47.21-.64-.62-1.24-.64-1.84-.53-.54.09-.62-.1-.32-.56m13.7-6.14c-.16.01-.38.01-.3.24.16.48,0,.88-.3,1.21q.55.98-.56,1.74c.03.23.14.42.35.58.44-.07.77-.28.94-.73.99-2.65,1.98-5.31,2.99-7.95.16-.41.06-.64-.35-.79-1.98-.74-3.97-1.49-5.94-2.24-.45-.17-.65-.07-.81.4-.63,1.8-1.23,3.62-1.98,5.36-.46,1.07-.29,2.11-.37,3.24.48-.12.8-.16.59-.73-.19-.51.26-1.13.75-1.01.75.19.76-.28.9-.7-.32-.39-.98-.31-1.08-.91.32-.26.59-.08.85.01.42.15.84.32,1.26.48,1.04.38,2.09.76,3.13,1.15.2.07.44.15.45.39.01.26-.22.25-.51.26m-6.97-1.3c-.01-1.54-.02-3.07-.03-4.61,0-.8-.13-.88-.9-.63-1.09.34-2.16.71-3.26,1.02-.47.13-.64.38-.62.85.03.82.03,1.64.01,2.46-.01.56.13.86.78.91.68.06,1.51.22,1.78.88.53,1.29,1.63,2.4,1.31,3.97.72.13,1.03-.09,1-.82-.05-1.3-.04-2.59-.07-4.04m-14.71,1.28c.94-.46,1.81-1.01,2.62-1.81-.63-.37-.81-.81-.75-1.44.05-.48-.22-.9-.67-1.18-.71-.45-1.53-.63-2.31-.74-.61-.09-1.32.32-1.62.92-.29.6-.39,1.31-.52,1.98-.12.6.01,1.19.53,1.57.46.34.81.71.84,1.33.68-.05,1.21-.35,1.87-.63m6.75-.76c.56-.32,1.17-.52,1.81-.56.52-.03.68-.28.67-.76-.01-.9,0-1.8,0-2.7,0-.21,0-.47-.21-.57-1.06-.49-2.12-.99-3.36-1.32v6.79c.35-.37.63-.64,1.09-.88m-12.01,2.45c1.27.56,2.54,1.12,3.8,1.68.11-.23.04-.38-.03-.52-.4-.85-.94-1.61-1.2-2.55-.13-.47-.66-1.23-1.39-.98-1.01.34-1.97.84-2.93,1.45.52.46,1.12.6,1.75.92m7.04,2.31c-.21.13-.52.13-.63.42.06.25.28.31.47.4,1.06.48,2.12.96,3.18,1.42.25.11.54.33.79.03.22-.27.36-.59.21-.95-.4-.96-.81-1.92-1.23-2.93-.92.54-1.8,1.05-2.79,1.62m3.17-6.18v-2.65c-.23.02-.29,0-.33.03-.5.24-1,.48-1.5.73-.69.34-.86.94-.33,1.5.41.44.64.96.92,1.47.36.66.57,1.41,1.24,2.17,0-1.16,0-2.12,0-3.25m5.26-5.27c-.27-.51.02-1.02.04-1.59-.74.02-1.39.15-2.03.58.3.48.57.93.84,1.37.73,1.18,1.05,1.25,2.3.47-.44-.14-.85-.31-1.16-.83m1.18,14.7c-.06.31.48.27.34.67-1.07.26-2.17-.26-3.45-.07.47.19.79.26,1.04.43,1.02.69,1.95.67,2.96-.08.9-.67.99-.97.13-1.93-.32.3-.65.6-1.02.98m15-6.15c.7-.35,1.4-.69,2.19-1.08-.6-.46-1.19-.66-1.79-.87-.2-.07-.37-.02-.49.15-.49.76-.96,1.53-1.39,2.52.57-.28.97-.47,1.48-.72m-12.9,5.59c0,.29,0,.58.29.83.49-.21,1-.39,1.46-.9-.7-.56-1.66-1.02-1.05-2.15-.46-.08-.65.09-.87.32-.65.68-.04,1.21.17,1.9m11.78-9.07c.11-.24.22-.48.34-.71.25-.48.04-.67-.48-.74-.77,2.03-1.52,4.04-2.28,6.05.04.02.08.03.12.05.75-1.51,1.5-3.03,2.3-4.65m-12.39-7.05c-.42-.45-.78-.09-1.35,0,.68.28,1.18.45,1.31,1.07.13.6-.28,1.02-.55,1.66.72-.39,1.44-.36,2.02-.86-.47-.62-.92-1.21-1.43-1.89m-2.74-.92c-.7.26-1.52.24-2.2.86,1.09.23,4.14-.71,4.42-1.39-.74.17-1.42.33-2.22.53m7.88,12.64c.52.24.99.2,1.28-.34.23-.41.06-.76-.29-1.03-.4-.3-.8-.26-1.14.08-.4.41-.38.84.14,1.29m-21.79-8.2c.09.16.17.34.36.4.3.1,1.69-.61,1.74-.94.07-.39-.12-.77-.53-.66-.64.17-1.32.38-1.57,1.2m11.66-.65c.23.08.46.16.76.26-.91-1.97-1.48-2.18-2.57-.95.58.23,1.14.44,1.81.69m9.95,12.04c.53-.39,1.28-.46,1.7-1.05-.27-.33-.47-.27-.69-.05-.45.44-.85.26-1.22-.14-.13-.14-.17-.4-.47-.35.16.57.01,1.23.68,1.59m-8.43-3.58c.64-.03,1.24-.23,1.81-.53.28-.15.62-.31.63-.65.01-.36-.35-.48-.71-.67.3.74-.14,1.01-.66,1.21-.69.26-1.39.5-2.35.54.53.22.84.17,1.28.1m-1.62-1.27c.36-.31.8-.48,1.21-.72-.55.07-1.12.04-1.61.31-.34.18-.81.36-.71.83.1.46.56.53,1,.6.02-.36-.29-.66.11-1.02m7.6-4.01c.43-.55.53-1.23.74-1.86.16-.47-.24-.47-.58-.48-.3.76-.12,1.53-.17,2.35m10.17,1.94c-.48.96-.97,1.92-1.45,2.88.48-.49.83-1.05,1.11-1.64.28-.56.78-1.03.8-1.74-.29.04-.31.26-.47.5m-13.71-7.18c-.12-.04-.25-.09-.37-.1-.28-.03-.54.05-.63.34-.09.26.13.38.31.47.29.14.59.26.87-.01.26-.24.18-.46-.18-.7m3.57,11.52c.03.28.15.47.45.33.25-.11.26-.38.25-.61,0-.23-.22-.27-.4-.29-.38-.04-.32.24-.3.57m-8.24,2.55c.13-.06.31-.02.44-.26-.42-.11-.72-.48-1.25-.44.1.41.24.72.8.7m8.87-.53c-.18-.26-.39-.27-.57-.02-.14.19-.04.38.14.46.33.15.42-.08.43-.44Z"/>
  <path class="cls-2" d="m41.19,69.42c.73.05,1.39-.15,2.01.13.15.41-.14.63-.31.87-2.31,3.16-4.62,6.33-6.96,9.47-.42.56-.43.95,0,1.52,2.62,3.43,5.2,6.9,7.79,10.35.16.21.3.43.44.63-.25.39-.6.25-.89.25-2.07.01-4.13-.01-6.2.02-.66.01-1.08-.21-1.46-.74-1.8-2.53-3.62-5.03-5.44-7.54-.12-.17-.26-.32-.4-.49-.3.23-.18.51-.18.76,0,1.78,0,3.55.03,5.33,0,.54-.18.9-.62,1.19-2.66,1.78-1.58,1.81-4.39.08-3.27-2-6.51-4.07-9.78-6.08-.63-.39-1-.83-1.17-1.57-.65-2.95-1.36-5.88-2.04-8.81-.05-.2-.13-.41.03-.6.3-.14.5.09.73.2,2.51,1.2,5.03,2.38,7.52,3.61.57.28.9.17,1.27-.3,1.67-2.06,3.36-4.09,5.04-6.14.66-.8.71-.8,1.46-.05q1.95,1.97,1.93,4.76c0,.6,0,1.19.18,1.84,1.14-1.58,2.28-3.16,3.42-4.74.76-1.06,1.52-2.11,2.23-3.19.38-.57.86-.8,1.53-.79,1.38.02,2.76,0,4.21,0Z"/>
  <path class="cls-2" d="m142.63,67.66c2.06,0,1.91-.21,1.92,1.84,0,1.64,0,3.29,0,4.93,0,.31,0,.62,0,1.1.75-.54,1.3-1.05,1.99-1.38,3.66-1.75,8.09-.41,10.12,3.32,2.25,4.12,2.1,8.32-.52,12.25-2.08,3.11-6.69,4.13-9.85,2.37-.58-.32-1.02-.83-1.61-1.23-.05.14-.12.24-.11.33.02,1.61-.04,1.47-1.67,1.47-1.51,0-3.02-.02-4.53,0-.61,0-.84-.2-.84-.83.01-7.74.01-15.47,0-23.21,0-.72.26-.99.98-.98,1.35.03,2.7,0,4.13,0m3.13,18.6c1.83,1.29,4.07.64,4.89-1.43.39-.98.26-1.98.04-2.97-.29-1.32-1.29-2.24-2.55-2.39-1.4-.17-2.57.47-3.22,1.7-.65,1.23-.64,3.92.84,5.08Z"/>
  <path class="cls-2" d="m107.97,92.66c-.61,0-1.14-.03-1.67,0-.69.04-.92-.24-.91-.93.02-3.52,0-7.05,0-10.57,0-4.19,0-8.37-.02-12.56,0-.73.27-.99.98-.98,1.72.03,3.44,0,5.17.01.91,0,1,.17.99,1.09-.03,3.05-.02,6.09-.03,9.14,0,.76,0,1.53,0,2.39.45-.16.63-.49.83-.77,1.21-1.71,2.41-3.42,3.59-5.15.28-.41.59-.64,1.1-.64,2.17.01,4.34,0,6.52,0,.26,0,.54-.02.75.23-.03.39-.31.65-.53.93-1.98,2.55-3.96,5.1-5.97,7.63-.43.54-.39.91.04,1.43,2.1,2.56,4.16,5.15,6.23,7.73.2.24.37.5.55.74-.21.36-.5.26-.75.26-2.23,0-4.45-.01-6.68.01-.58,0-.92-.21-1.22-.68-1.26-1.93-2.54-3.84-3.83-5.76-.14-.21-.24-.47-.59-.63,0,1.62-.08,3.2.02,4.77.14,2.29.19,2.29-2.1,2.28-.79,0-1.59,0-2.46,0Z"/>
  <path class="cls-2" d="m63.11,92.66c-1.72,0-3.36,0-5,0-.94,0-1.01-.08-.94-.99.02-.32.03-.63-.07-.92-.18-.08-.27.04-.36.13-3.46,3.41-8.83,2.28-11.34-1.19-1.2-1.66-1.75-3.53-1.87-5.56-.16-2.83.33-5.49,2.11-7.79,2.35-3.05,7.1-3.81,10.22-1.65.38.26.71.6,1.1.92.19-.4.11-.78.11-1.13,0-.54.25-.76.78-.76,1.85,0,3.71,0,5.56-.02.56,0,.73.26.73.78-.01,5.83-.02,11.65,0,17.48,0,.72-.44.73-1.02.72m-6.18-8.1c.21-.78.18-1.58.05-2.36-.29-1.65-1.53-2.72-3.11-2.73-1.59-.02-2.68.89-3.05,2.56-.16.73-.18,1.46-.04,2.2.27,1.43,1.33,2.51,2.6,2.63,1.75.16,2.97-.59,3.55-2.29Z"/>
  <path class="cls-2" d="m82.75,78.16c1.2-2.1,2.64-3.85,4.89-4.78,3.4-1.41,8.04-.08,9.65,3.59.03.07.08.13.22.34.17-.46.32-.81.44-1.17.15-.45.44-.58.86-.42,1.76.67,3.52,1.34,5.27,2.01.52.2.55.58.37,1.04-2.04,5.35-4.08,10.69-6.1,16.05-.26.68-.63.8-1.28.53-1.55-.63-3.1-1.24-4.68-1.78-.78-.27-.94-.66-.57-1.36.12-.23.19-.49.31-.8-.42-.05-.68.16-.96.25-4.61,1.51-8.73-1.89-9.57-5.72-.6-2.72-.03-5.25,1.13-7.78m11.6,7.15c.62-1.09,1-2.23.69-3.49-.32-1.3-1.24-2.01-2.48-2.29-1.17-.26-2.12.19-2.88,1.09-1.59,1.88-1.85,5.28,1.09,6.13,1.34.39,2.48,0,3.58-1.43Z"/>
  <path class="cls-2" d="m74.61,88.65c0,1.09-.02,2.09.01,3.1.02.64-.21.92-.87.91-1.8-.02-3.6-.03-5.4,0-.62,0-.83-.23-.83-.85.02-2.36.01-4.72,0-7.07-.02-3.26-.06-6.51-.07-9.77,0-1.27.03-1.26,1.27-1.26,1.64,0,3.29.02,4.93-.02.7-.02.97.28.95.94-.01.52,0,1.04.09,1.61.98-.95,2.01-1.75,3.25-2.25.62-.25,1.25-.42,1.92-.45.48-.02.75.19.75.7.01,1.99.02,3.97.04,5.96,0,.47-.23.67-.68.67-.79,0-1.59-.01-2.38.03-1.96.1-2.99,1.2-2.99,3.16,0,1.51,0,3.02.01,4.61Z"/>
  <path class="cls-2" d="m127.07,81.17c.03-2.25.07-4.42.07-6.59,0-.65.24-.9.88-.89,1.77.02,3.55.02,5.32,0,.66,0,.87.29.87.91,0,5.69,0,11.38.03,17.07,0,.77-.29,1.01-1.03,1-1.69-.04-3.39-.04-5.08,0-.7.01-.98-.19-.98-.95,0-3.49-.05-6.98-.08-10.55Z"/>
  <path class="cls-2" d="m42.12,83.09c-.47.79-1.24,1.14-1.89,1.62-.27.2-.5.02-.68-.2-.89-1.15-1.77-2.31-2.66-3.46-.19-.25-.18-.47,0-.72,1.64-2.24,3.27-4.49,4.91-6.73.04-.05.13-.07.37-.18.04,3.26.08,6.43-.05,9.67Z"/>
  <path class="cls-2" d="m38.66,57.12c-1.8-.7-3.66-1.15-5.34-2.13.31-.38.55-.27.76-.19,1.51.54,3.02,1.09,4.54,1.64.2.07.43.14.46.38.03.24-.16.3-.42.31Z"/>
  <path class="cls-2" d="m39.02,55.47c.25.12.57.14.43.49-.08.2-.3.22-.48.15-1.64-.64-3.28-1.29-4.92-1.94-.13-.05-.21-.16-.18-.34.21-.33.5-.14.75-.05,1.45.55,2.9,1.11,4.41,1.69Z"/>
  <path class="cls-2" d="m34.37,56.02c1.27.48,2.48.94,3.69,1.41.27.11.75.12.58.57-.14.39-.5.13-.75.04-1.39-.52-2.77-1.05-4.15-1.59-.25-.1-.59-.13-.65-.54.44-.38.82.02,1.28.11Z"/>
  <path class="cls-2" d="m38.12,59.22c-1.74-.6-3.41-1.23-5.09-1.85-.2-.07-.43-.18-.3-.45.1-.22.31-.15.49-.09,1.58.6,3.15,1.2,4.73,1.82.23.09.56.2.18.57Z"/>
  <g>
    <path class="cls-2" d="m129.84,69.46c.05.62.09,1.14.27,1.61.18.46.27.66.24.05-.03-.57-.07-1.12.03-1.75.03-.02.06-.04.1-.05,3.9-2.28,4.99-5.91.3-10.35-1.77,3.15-5.7,5.99-1.31,10.19.16.16.28.26.39.31h0Zm.21-1.35c-.79-2.64.87-5.25.84-7.5.87,3.39,0,4.38-.84,7.5h0Z"/>
    <path class="cls-1" d="m130.04,68.11c-.79-2.64.87-5.25.84-7.5.87,3.39,0,4.38-.84,7.5h0Z"/>
  </g>
</svg>